HIERARCHY
ROOT pelvis
{
  OFFSET 0 100 0
  CHANNELS 6 Xposition Yposition Zposition Zrotation Xrotation Yrotation
  JOINT pelvis_right_femur
  {
    OFFSET -10.78128 -3.44521 -0.5502486
    CHANNELS 3 Zrotation Xrotation Yrotation
    JOINT right_femur_tibia
    {
      OFFSET -0.8047443 -44.0398 -0.1307829
      CHANNELS 3 Zrotation Xrotation Yrotation
      JOINT right_tibia_foot
      {
        OFFSET 3.006224 -47.83518 -5
        CHANNELS 3 Zrotation Xrotation Yrotation
        End Site
        {
          OFFSET 0 -5 15
        }
      }
    }
  }
  JOINT pelvis_left_femur
  {
    OFFSET 10.78128 -3.44521 -0.5502486
    CHANNELS 3 Zrotation Xrotation Yrotation
    JOINT left_femur_tibia
    {
      OFFSET 0.8047443 -44.0398 -0.1307829
      CHANNELS 3 Zrotation Xrotation Yrotation
      JOINT left_tibia_foot
      {
        OFFSET -4.370144 -48.10324 -4.275266
        CHANNELS 3 Zrotation Xrotation Yrotation
        End Site
        {
          OFFSET 0 -5 15
        }
      }
    }
  }
  JOINT pelvis_spine1
  {
    OFFSET 0 6.468898 -3.129235
    CHANNELS 3 Zrotation Xrotation Yrotation
    JOINT spine1
    {
      OFFSET 0 23.15396 4.99043
      CHANNELS 3 Zrotation Xrotation Yrotation
      JOINT spine2
      {
        OFFSET 0 20.79997 -5.064912
        CHANNELS 3 Zrotation Xrotation Yrotation
        JOINT neck
        {
          OFFSET 0 14.38658 9.616178
          CHANNELS 3 Zrotation Xrotation Yrotation
          End Site
          {
            OFFSET 0 20 0
          }
        }
      }
      JOINT right_manubrium
      {
        OFFSET -5.722621 16.35077 3.967754
        CHANNELS 3 Zrotation Xrotation Yrotation
        JOINT right_clavicle
        {
          OFFSET -13.16364 1.694482 -4.693211
          CHANNELS 3 Zrotation Xrotation Yrotation
          JOINT right_humerus
          {
            OFFSET -28.5034 -0.3100689 -2.792744
            CHANNELS 3 Zrotation Xrotation Yrotation
            JOINT right_radius
            {
              OFFSET -25.15693 0.02248979 -1.271978
              CHANNELS 3 Zrotation Xrotation Yrotation
              End Site
              {
                OFFSET -15 0 0
              }
            }
          }
        }
      }
      JOINT left_manubrium
      {
        OFFSET 5.722621 16.35077 3.967754
        CHANNELS 3 Zrotation Xrotation Yrotation
        JOINT left_clavicle
        {
          OFFSET 13.16364 1.694482 -4.693211
          CHANNELS 3 Zrotation Xrotation Yrotation
          JOINT left_humerus
          {
            OFFSET 29.39168 -1.063119 -2.237045
            CHANNELS 3 Zrotation Xrotation Yrotation
            JOINT left_radius
            {
              OFFSET 24.59957 -0.9528479 0.9047498
              CHANNELS 3 Zrotation Xrotation Yrotation
              End Site
              {
                OFFSET 15 -0 -0
              }
            }
          }
        }
      }
    }
  }
}
MOTION
Frames: 15
Frame Time: 0.0416666666667
0 103.5113 0 -0.3316224 -1.229408 0.1270903 -0.02069362 -8.848634 11.75011 -0 33.12144 -0 1.423566 -18.09727 -1.191173 -4.650636 7.38953 -21.84457 -0 10.03471 -0 8.170989 -19.6373 25.53456 -3.108641 -9.089863 4.950886 3.079085 11.06127 -10.48323 0.281122 24.06978 7.228624 0.3834301 -19.03932 8.714956 7.564892 -15.37271 15.68277 82.32087 39.53306 -14.98742 -0 0 14.59495 -7.261623 5.599766 6.710961 0.4428347 -17.82178 -4.027157 -95.4792 36.67512 25.32006 0 0 -15.69286 6.012221 26.5226 10.66366
0.4977564 103.6207 1.126927 -0.3451302 -1.260753 -0.09198671 0.2682108 -12.54941 10.91324 -0 38.50509 -0 0.7350227 -17.25088 -2.365335 -4.562509 8.655732 -21.65946 -0 8.980247 -0 7.853779 -19.87467 25.23007 -3.474342 -8.125952 4.684484 3.042753 10.93526 -10.66692 0.5093896 23.90524 7.287042 0.7925395 -19.75822 8.786635 7.640206 -15.69719 15.34921 82.19894 39.24483 -15.15482 -0 0 14.46999 -7.581113 5.665389 6.82142 0.4760702 -18.01771 -3.735973 -94.44773 36.25364 24.55092 0 0 -15.80878 6.466678 26.2132 10.55272
0.7447626 103.6922 2.310158 -0.3402719 -1.239134 0.04918793 0.8542571 -16.62115 9.724657 -0 42.11233 -0 -0.1748646 -16.58487 -3.325546 -4.488964 9.968436 -21.34968 -0 7.815834 -0 7.420909 -20.065 24.94536 -3.890418 -7.039655 4.568819 3.0122 10.73129 -10.73078 0.5212173 23.93693 7.351809 1.100933 -20.30544 8.673129 7.703206 -15.90673 15.03196 82.35082 38.97366 -15.5421 -0 0 14.19516 -7.813147 5.759064 6.88585 0.5687261 -18.51633 -3.526442 -93.13934 35.82401 23.38773 0 0 -16.0863 6.988879 25.83978 10.37178
1.134999 103.7725 4.127754 -0.3638222 -1.296333 -0.347909 1.416537 -20.51076 8.259853 -0 43.28003 -0 -1.114157 -15.40856 -3.871558 -4.622385 11.53184 -21.12305 -0 6.951631 -0 6.937291 -20.35312 24.71551 -4.300229 -6.138106 4.589294 3.386982 10.42784 -10.75226 0.8570366 23.80431 7.411077 1.585443 -20.96073 8.837562 7.579462 -15.89852 14.74572 82.69819 38.74952 -16.2543 -0 0 13.59805 -7.926647 5.895764 6.856066 0.8616574 -18.74727 -3.486395 -92.24464 35.35108 22.32768 0 0 -16.85071 7.405651 25.41255 10.02915
1.409997 103.7578 6.0604 -0.3814105 -1.335575 -0.6247713 1.970668 -24.12161 6.721414 -0 42.04097 -0 -2.018939 -13.41215 -4.00769 -4.634264 13.12841 -20.8069 -0 6.093793 -0 6.46508 -20.77385 24.40445 -4.792916 -4.957475 4.707494 3.760976 10.01304 -10.61308 1.115913 23.54002 7.546805 2.03358 -21.63082 9.028182 7.470008 -15.79353 14.52101 83.25684 38.55928 -17.10779 -0 0 12.80901 -7.953685 6.064863 6.776055 1.233135 -19.14942 -3.45472 -91.36562 34.84063 21.02023 0 0 -17.96372 7.85305 24.94746 9.544714
1.683309 103.4123 8.216735 -0.3970536 -1.369162 -0.8655836 2.513487 -27.11165 5.159608 -0 37.50882 -0 -2.640127 -11.24178 -3.947499 -4.85307 14.93979 -20.26509 -0 5.606046 -0 6.030489 -21.37848 24.08528 -5.143405 -3.600356 4.771787 4.051606 9.437501 -10.37728 1.13767 23.36714 7.667165 2.323201 -22.19896 9.011357 7.198212 -15.732 14.2899 83.91849 38.38937 -17.91561 -0 0 12.00445 -7.951316 6.249656 6.727752 1.712296 -19.51253 -3.451926 -90.65598 34.27981 19.68395 0 0 -19.28545 8.280614 24.4403 8.984636
1.933765 102.8274 10.88665 -0.4074615 -1.389103 -1.01451 2.980814 -29.03906 3.759817 -0 31.19818 -0 -3.128242 -9.028888 -3.879979 -4.898442 16.69288 -19.77101 -0 5.408421 -0 5.625445 -22.09923 23.56527 -5.274338 -2.433194 4.869495 4.32569 8.690965 -10.23716 1.36848 23.07216 7.791702 2.719601 -22.86349 9.203759 6.719837 -15.55021 13.82505 84.80185 38.18095 -18.90043 -0 0 11.20827 -7.943651 6.443598 6.727981 2.171784 -19.742 -3.443471 -90.18685 33.68574 18.53059 0 0 -20.53344 8.587311 23.88947 8.452228
2.103053 101.9973 13.85331 -0.3933163 -1.345231 -0.7237287 3.290733 -30.62561 2.7973 -0 24.49024 -0 -3.695325 -7.158294 -3.852284 -5.246748 18.47922 -18.96536 -0 5.752478 -0 5.26985 -22.8511 23.0014 -5.293809 -1.278975 4.906788 4.433095 8.209954 -10.14943 1.501324 22.85747 7.842894 3.044525 -23.50818 9.222746 6.234749 -15.46226 13.27867 85.7415 37.95151 -19.83531 -0 0 10.51555 -7.96245 6.644004 6.814352 2.644985 -20.03267 -3.342294 -89.74294 33.07016 17.53184 0 0 -21.4282 8.761766 23.25385 8.046833
2.298739 101.0283 17.10807 -0.3792278 -1.301563 -0.4335924 3.611326 -31.66683 2.195566 -0 18.38224 -0 -4.384798 -5.807187 -3.658149 -5.60554 19.8943 -18.12023 -0 6.724623 -0 4.717322 -23.35431 22.18959 -5.201269 -0.1384759 4.88524 4.496819 7.840197 -10.12712 1.654206 22.8312 7.892433 3.412114 -24.21056 9.260415 5.783271 -15.42462 12.55518 86.40714 37.77597 -20.42871 -0 0 9.9121 -8.033897 6.849075 6.968519 3.01262 -20.4588 -3.223136 -89.46198 32.46973 16.64397 0 0 -22.08972 8.822666 22.62009 7.759795
2.421225 100.2198 20.84142 -0.3496613 -1.216548 0.1426723 4.01349 -31.89952 2.341633 -0 15.20006 -0 -5.264218 -4.911813 -3.392821 -5.541934 21.11697 -17.30588 -0 8.485939 -0 3.720607 -23.31467 20.82282 -4.942628 0.5994075 4.655268 4.470612 7.742279 -10.14611 1.556004 22.97182 8.181365 3.780082 -24.81089 9.299378 5.622933 -15.41712 12.00275 87.0008 37.62902 -20.99658 -0 0 9.177255 -8.135674 7.074424 7.1463 3.031828 -20.83977 -3.212827 -89.31875 31.92086 16.21196 0 0 -22.0404 8.676613 21.97741 7.724408
2.484689 99.75959 25.1763 -0.3056274 -1.08912 1.009151 4.225561 -30.95285 2.745164 -0 15.5125 -0 -6.381028 -4.260631 -3.465298 -5.492333 22.27065 -15.94013 -0 11.3916 -0 2.256173 -22.20851 19.18553 -4.501491 0.9324924 4.064673 4.39378 7.655785 -10.4409 1.393682 22.95999 8.431279 4.044685 -25.28412 9.254051 5.698192 -15.44164 11.64064 87.55016 37.52163 -21.51107 -0 0 8.303743 -8.25952 7.317783 7.317477 2.670974 -21.0936 -3.426706 -89.3191 31.41997 16.32311 0 0 -21.16631 8.34334 21.32159 7.946117
2.492343 99.63578 30.13963 -0.2691176 -0.979083 1.755669 4.363293 -29.55194 3.203181 -0 17.64942 -0 -7.607597 -4.186503 -3.899 -5.657502 22.49882 -14.18391 -0 16.18575 -0 0.3647579 -19.46613 17.582 -4.00946 1.014524 3.497398 4.133679 7.704356 -10.69143 1.353726 22.63067 8.590382 4.300239 -25.6651 9.212887 5.898757 -15.37513 11.51058 88.16276 37.41724 -21.98621 -0 0 7.413678 -8.450601 7.575551 7.550088 1.876356 -20.98156 -3.713667 -89.69825 30.90138 17.17478 0 0 -19.54973 7.700309 20.54227 8.323134
2.597717 99.98402 35.66515 -0.2584104 -0.9440216 1.992363 4.632333 -27.86535 3.893737 -0 20.17499 -0 -8.762246 -4.809387 -4.400891 -5.947362 21.56344 -12.59093 -0 23.14219 -0 -1.788018 -14.92244 15.95819 -3.367357 0.7268773 3.202498 3.950843 7.863502 -10.67395 1.238136 22.31591 8.690839 4.43672 -25.83056 9.055948 5.975323 -15.31551 11.62897 88.61692 37.37488 -22.22363 -0 0 6.552844 -8.751104 7.837504 7.873646 1.376376 -20.41922 -4.027732 -90.41532 30.37717 18.5613 0 0 -17.83744 6.923092 19.74683 8.827121
2.692876 100.4957 41.44379 -0.2763308 -0.994913 1.645923 5.065607 -25.23145 4.639198 -0 21.75871 -0 -9.755632 -6.036864 -4.820964 -6.557849 18.67081 -10.83166 -0 32.48492 -0 -3.66262 -9.186986 14.7308 -2.734517 0.1167845 3.117623 3.752448 8.284204 -10.6541 0.9835326 22.05069 8.801779 4.450818 -25.829 8.805759 5.890212 -15.17936 11.72811 88.89152 37.27094 -22.27892 -0 0 6.118491 -9.333308 8.066024 8.460699 1.107311 -19.64032 -4.407803 -91.23893 29.81619 20.16802 0 0 -16.28142 6.111128 18.94455 9.319744
2.760362 101.1208 47.10166 -0.3049442 -1.07637 1.09146 5.368198 -21.8751 5.040414 -0 22.21712 -0 -10.5447 -7.831374 -5.112772 -6.628897 14.01652 -9.29505 -0 42.90797 -0 -5.080653 -3.25434 13.78804 -2.124813 -0.5796094 3.705164 3.435002 8.748502 -10.10986 0.7683787 22.01582 8.81113 4.455208 -25.6754 8.474659 5.820067 -15.16804 12.02278 88.79469 37.18992 -21.85363 -0 0 6.219935 -10.06894 8.283559 9.106571 0.8385454 -19.23321 -4.495601 -91.71688 29.20934 21.46344 0 0 -15.18367 5.45202 18.16632 9.643785
